<?xml version="1.0" standalone="no"?>
<!DOCTYPE svg PUBLIC "-//W3C//DTD SVG 20010904//EN"
 "http://www.w3.org/TR/2001/REC-SVG-20010904/DTD/svg10.dtd">
<svg version="1.0" xmlns="http://www.w3.org/2000/svg"
 width="512.000000pt" height="512.000000pt" viewBox="0 0 512.000000 512.000000"
 preserveAspectRatio="xMidYMid meet">

<g transform="translate(0.000000,512.000000) scale(0.100000,-0.100000)"
fill="#000000" stroke="none">
<path d="M3879 4875 c-114 -42 -195 -113 -243 -215 -28 -58 -31 -75 -31 -160
0 -68 5 -108 18 -143 l19 -47 53 48 c167 153 438 262 651 262 l54 0 0 135 0
135 -242 -1 c-174 0 -253 -4 -279 -14z"/>
<path d="M170 4360 l0 -90 95 0 95 0 0 90 0 90 -95 0 -95 0 0 -90z"/>
<path d="M520 4360 l0 -90 575 0 575 0 0 90 0 90 -575 0 -575 0 0 -90z"/>
<path d="M2203 3804 l-253 -207 51 -58 c28 -33 54 -59 58 -59 3 0 96 78 206
174 109 96 203 172 209 170 55 -18 579 -164 590 -164 14 0 96 144 96 169 0 7
-670 181 -697 181 -5 0 -122 -93 -260 -206z"/>
<path d="M0 3660 l0 -90 355 0 355 0 0 90 0 90 -355 0 -355 0 0 -90z"/>
<path d="M870 3660 l0 -90 95 0 95 0 0 90 0 90 -95 0 -95 0 0 -90z"/>
<path d="M3475 2975 c-214 -234 -404 -441 -420 -461 l-31 -35 -196 109 -196
109 -307 -439 -308 -439 -378 -341 c-414 -372 -419 -378 -419 -481 0 -96 42
-166 125 -210 55 -28 146 -28 200 1 22 11 209 159 415 327 336 275 404 335
656 587 l281 280 350 -262 349 -262 -68 -472 c-79 -542 -81 -595 -33 -663 94
-133 314 -119 388 24 17 32 250 1255 245 1285 -2 10 -158 154 -348 320 -190
166 -344 306 -342 312 14 48 335 923 341 929 4 4 139 -143 299 -327 161 -184
298 -339 306 -345 9 -8 64 12 217 80 112 50 207 94 211 98 12 11 -58 166 -73
163 -8 -2 -74 -30 -147 -63 -73 -32 -136 -59 -140 -59 -5 0 -138 149 -297 330
-159 182 -289 330 -289 330 -1 0 -176 -191 -391 -425z"/>
<path d="M430 2955 l0 -95 445 0 445 0 0 95 0 95 -445 0 -445 0 0 -95z"/>
<path d="M170 2255 l0 -95 750 0 750 0 0 95 0 95 -750 0 -750 0 0 -95z"/>
<path d="M0 1550 l0 -90 90 0 90 0 0 90 0 90 -90 0 -90 0 0 -90z"/>
<path d="M350 1550 l0 -90 355 0 355 0 0 90 0 90 -355 0 -355 0 0 -90z"/>
<path d="M170 845 l0 -95 315 0 315 0 0 95 0 95 -315 0 -315 0 0 -95z"/>
</g>
</svg>
